<svg viewBox="0 0 256 256" xmlns="http://www.w3.org/2000/svg"><style>@media (prefers-color-scheme:dark){.r{fill:#27272a}.p{fill:#fff}}</style><rect width="256" height="256" rx="57" class="r" fill="#f4f4f5"/><path d="M40.5 53c0-6.902 5.598-12.5 12.5-12.5h150c6.914 0 12.5 5.598 12.5 12.5s-5.586 12.5-12.5 12.5H53c-6.902 0-12.5-5.598-12.5-12.5Zm75 50c0-6.914 5.586-12.5 12.5-12.5h75c6.914 0 12.5 5.586 12.5 12.5s-5.586 12.5-12.5 12.5h-75c-6.914 0-12.5-5.586-12.5-12.5Zm87.5 37.5c6.914 0 12.5 5.586 12.5 12.5s-5.586 12.5-12.5 12.5h-75c-6.914 0-12.5-5.586-12.5-12.5s5.586-12.5 12.5-12.5h75ZM40.5 203c0-6.914 5.598-12.5 12.5-12.5h150c6.914 0 12.5 5.586 12.5 12.5s-5.586 12.5-12.5 12.5H53c-6.902 0-12.5-5.586-12.5-12.5Zm.094-70.078c-3.219-2.5-3.219-7.344 0-9.844l39.828-30.976c4.101-3.204 10.078-.274 10.078 4.921v61.954c0 5.195-5.977 8.125-10.078 4.921l-39.828-30.976Z" class="p" fill="#18181b"/></svg>